<svg width="32" height="32" viewBox="0 0 32 32" fill="none" xmlns="http://www.w3.org/2000/svg">
<path d="M7.67227 16.9089C4.90723 16.9089 2.66602 19.1573 2.66602 21.9305V23.4044C2.66602 23.8017 2.98714 24.1238 3.38343 24.1238H11.9611C12.3573 24.1238 12.6785 23.8017 12.6785 23.4044V21.9305C12.6782 19.1573 10.4371 16.9089 7.67227 16.9089ZM10.4243 12.6956C10.4243 11.1712 9.19215 9.93523 7.67227 9.93523C6.15222 9.93523 4.9203 11.1712 4.9203 12.6956C4.9203 14.2204 6.15222 15.4563 7.67227 15.4563C9.19215 15.4563 10.4243 14.2203 10.4243 12.6956ZM27.0782 12.2506C27.0782 10.7261 25.8463 9.49023 24.3262 9.49023C22.8063 9.49023 21.5742 10.7261 21.5742 12.2506C21.5742 13.7751 22.8063 15.011 24.3262 15.011C25.8463 15.011 27.0782 13.7751 27.0782 12.2506ZM24.3262 16.568C21.5614 16.568 19.3202 18.8162 19.3202 21.5894V23.0633C19.3202 23.4606 19.641 23.7828 20.0375 23.7828H28.6153C29.0113 23.7828 29.3327 23.4607 29.3327 23.0633V21.5894C29.3325 18.8162 27.0912 16.568 24.3262 16.568Z" fill="white" fill-opacity="0.74"/>
<path d="M15.9981 15.4434C12.1095 15.4434 8.95703 18.6055 8.95703 22.5059V24.5789C8.95703 25.1377 9.4088 25.591 9.96595 25.591H22.0303C22.5874 25.591 23.0392 25.1377 23.0392 24.5789V22.5058C23.0392 18.6055 19.8867 15.4434 15.9981 15.4434Z" fill="white"/>
<path d="M19.5085 10.3406C19.5085 8.31106 17.8683 6.66602 15.8451 6.66602C13.8218 6.66602 12.1816 8.31106 12.1816 10.3406C12.1816 12.3699 13.8218 14.0152 15.8451 14.0152C17.8683 14.0152 19.5085 12.3699 19.5085 10.3406Z" fill="white"/>
</svg>
