<svg width="24" height="24" viewBox="0 0 24 24" fill="none" xmlns="http://www.w3.org/2000/svg">
<path d="M21.3612 10.6999L21.3598 10.6985L13.2006 2.53963C12.8528 2.19162 12.3904 2 11.8986 2C11.4067 2 10.9443 2.1915 10.5964 2.53947L2.44139 10.6942C2.43866 10.697 2.43593 10.6999 2.43319 10.7026C1.71898 11.4209 1.72023 12.5864 2.43671 13.3028C2.76401 13.6303 3.19635 13.82 3.65859 13.8398C3.67734 13.8417 3.69629 13.8426 3.71535 13.8426H4.04054V19.8471C4.04054 21.0353 5.00728 22.002 6.19576 22.002H9.38788C9.71143 22.002 9.97388 21.7397 9.97388 21.416V16.7085C9.97388 16.1663 10.4149 15.7253 10.9571 15.7253H12.84C13.3822 15.7253 13.8232 16.1664 13.8232 16.7085V21.416C13.8232 21.7397 14.0855 22.002 14.4092 22.002H17.6013C18.7898 22.002 19.7566 21.0353 19.7566 19.8471V13.8426H20.0581C20.5498 13.8426 21.0122 13.6511 21.3603 13.3032C22.0775 12.5855 22.0778 11.4181 21.3612 10.6999Z" fill="#23262F"/>
</svg>
