<svg width="24" height="24" viewBox="0 0 24 24" fill="none" xmlns="http://www.w3.org/2000/svg">
    <path d="M20.5827 15.5392C20.7305 15.4305 20.847 15.2848 20.9204 15.1167C20.9939 14.9487 21.0217 14.7642 21.0011 14.5819C20.9805 14.3997 20.9122 14.2261 20.803 14.0787C20.6939 13.9313 20.5478 13.8152 20.3795 13.7423V12.3091L19.5416 12.6652V13.7423C19.3732 13.8152 19.2271 13.9312 19.1179 14.0787C19.0087 14.2261 18.9403 14.3998 18.9197 14.5821C18.8991 14.7644 18.9269 14.949 19.0005 15.1171C19.074 15.2852 19.1906 15.4309 19.3384 15.5396C19.2069 15.6362 19.0999 15.7624 19.0261 15.9079C18.9522 16.0534 18.9135 16.2143 18.9132 16.3775V17.4244C18.9132 17.5355 18.9573 17.6421 19.0359 17.7207C19.1145 17.7992 19.221 17.8434 19.3322 17.8434H20.589C20.7001 17.8434 20.8067 17.7992 20.8852 17.7207C20.9638 17.6421 21.008 17.5355 21.008 17.4244V16.3771C21.0076 16.2139 20.969 16.053 20.8951 15.9075C20.8212 15.762 20.7142 15.6358 20.5827 15.5392ZM18.2848 13.1973V16.2975C18.287 16.6579 18.1955 17.0127 18.0193 17.327C17.843 17.6414 17.588 17.9045 17.2793 18.0906C15.6774 19.0261 13.8557 19.5191 12.0006 19.5191C10.1455 19.5191 8.32372 19.0261 6.72182 18.0906C6.41314 17.9045 6.15815 17.6414 5.98187 17.327C5.80559 17.0127 5.71409 16.6579 5.71635 16.2975V13.1973L10.8568 15.3716C11.219 15.5237 11.6078 15.602 12.0006 15.602C12.3933 15.602 12.7822 15.5237 13.1443 15.3716L18.2848 13.1973Z" fill="#23262F"/>
    <path d="M21.2328 8.72589L12.8169 5.16483C12.5583 5.05604 12.2806 5 12 5C11.7194 5 11.4417 5.05604 11.1831 5.16483L2.76722 8.72589C2.53975 8.82211 2.34567 8.98321 2.20922 9.18908C2.07277 9.39495 2 9.63646 2 9.88345C2 10.1304 2.07277 10.3719 2.20922 10.5778C2.34567 10.7837 2.53975 10.9448 2.76722 11.041L11.1831 14.6021C11.4416 14.711 11.7194 14.7671 12 14.7671C12.2806 14.7671 12.5584 14.711 12.8169 14.6021L21.2328 11.041C21.4602 10.9448 21.6543 10.7837 21.7908 10.5778C21.9272 10.3719 22 10.1304 22 9.88345C22 9.63646 21.9272 9.39495 21.7908 9.18908C21.6543 8.98321 21.4602 8.82211 21.2328 8.72589Z" fill="#23262F"/>
</svg>